# xmcd CD database file
#
# Track frame offsets:
#	150
#	20000
#	35705
#	64670
#	85240
#	97733
#	111583
#	136708
#	153740
#	177480
#
# Disc length: 2650 seconds
#
# Revision: 0
# Processed by: cddbd v1.5.2PL0 Copyright (c) Steve Scherf et al.
# Submitted via: CDex 1.78
#
DISCID=840a580a
DTITLE=Tom Petty and The Heartbreakers - Straight Into Darkness [CD1)
DYEAR=1991
DGENRE=Country
TTITLE0=American Girl
TTITLE1=Listen To Her Heart
TTITLE2=A Thing About You
TTITLE3=Straight Into Darkness
TTITLE4=I Need To Know
TTITLE5=Don't Do Me Like That
TTITLE6=I'm In Love
TTITLE7=Change Of Heart
TTITLE8=You Got Lucky
TTITLE9=Louie Louie
EXTD=YEAR: 1991
EXTT0=
EXTT1=
EXTT2=
EXTT3=
EXTT4=
EXTT5=
EXTT6=
EXTT7=
EXTT8=
EXTT9=
PLAYORDER=
